PathFileType	4	(X/Y/Z)	C:\Users\WrightLab\Desktop\Jo\P4V119.trc
DataRate	CameraRate	NumFrames	NumMarkers	Units	OrigDataRate	OrigDataStartFrame	OrigNumFrames
100.00	100.00	       7	19	mm	100.00	523	       697
Frame#	Time	Headset_Front			Headset_Back			Headset_Left			Headset_Right			Left_Shoulder			Right_Shoulder			Sternum			C7			Left Elbow			Right Elbow			Left Wrist			Right Wrist			Left ASIS			Right ASIS			S2			Left Knee			Right Knee			Left Ankle			Right Ankle			
		X1	Y1	Z1	X2	Y2	Z2	X3	Y3	Z3	X4	Y4	Z4	X5	Y5	Z5	X6	Y6	Z6	X7	Y7	Z7	X8	Y8	Z8	X9	Y9	Z9	X10	Y10	Z10	X11	Y11	Z11	X12	Y12	Z12	X13	Y13	Z13	X14	Y14	Z14	X15	Y15	Z15	X16	Y16	Z16	X17	Y17	Z17	X18	Y18	Z18	X19	Y19	Z19	

523	5.220	24.39260	1689.62878	1795.43347	-57.45232	1715.20447	1671.04224							217.65636	1537.39380	1641.33264	-67.58638	1527.44080	1522.73083	47.14249	1471.43762	1686.37024				381.12292	1198.29041	1671.14124	-200.40834	1176.18408	1514.65405	335.30170	916.66321	1799.15039	-223.58217	999.97766	1760.17920	190.58011	1044.89917	1746.19604	-109.50449	1029.00989	1598.74573	147.81880	1062.25610	1514.09949	170.65079	605.02362	1887.66272	2.20061	552.64081	1531.57385	107.13205	123.76699	2058.73218	177.56461	102.56879	1353.13635	
524	5.230	22.09646	1687.89429	1804.85925	-58.99834	1714.46973	1681.72498							216.03616	1534.80481	1651.89331	-68.88100	1524.73840	1531.74451	44.73112	1468.61267	1696.28979				379.26672	1195.95972	1682.45288	-201.79248	1173.30933	1523.98035	334.10181	913.80255	1810.20862	-225.55020	997.67914	1769.53687	188.05193	1043.01685	1758.23633	-111.64341	1027.68286	1608.57727				163.76395	606.00916	1903.53613	-0.05090	551.92108	1537.51453	99.01081	122.94117	2071.20093	177.56024	103.79781	1354.73877	
525	5.240	20.29042	1686.59314	1815.42578	-60.73470	1711.72498	1691.80298							214.70523	1532.45435	1661.72009	-70.82922	1522.49109	1542.48779	42.45086	1466.50562	1708.41345				377.38040	1193.56775	1694.01929	-203.18909	1170.97815	1533.43311	332.66327	909.96295	1819.55188	-227.64928	995.98889	1778.58765	185.12299	1040.18652	1769.28357	-113.71715	1026.50769	1618.66406	144.90848	1057.44397	1540.24829	155.79376	606.59601	1917.31140	-2.68753	550.97369	1544.19604	91.95116	122.30408	2082.00000	176.39337	105.83552	1355.47546	
526	5.250	18.42254	1685.57104	1826.50391	-62.97330	1710.78540	1701.39221							213.16750	1530.41357	1672.98999	-72.76027	1520.68628	1554.01526	40.54644	1465.11536	1720.28845				374.94403	1191.53882	1705.96692	-204.72681	1168.38135	1542.80322	329.59143	908.69983	1832.87122	-229.78304	993.44434	1788.15369	181.96553	1037.78442	1781.21179	-115.93468	1025.28979	1629.70959	143.18379	1055.17773	1550.19312	149.49022	608.12494	1933.28516	-5.38421	550.35510	1549.61902	84.74747	120.87527	2089.34229	176.17662	107.67077	1356.84460	
527	5.260	15.90677	1683.75684	1836.81921	-64.30786	1709.39587	1712.04907							210.75432	1528.60168	1685.11243	-74.50051	1518.50464	1564.65747	38.94195	1463.26563	1730.27405				372.86996	1189.31348	1717.10229	-206.16217	1166.33215	1551.98889	329.02762	904.63220	1840.87524	-232.36636	991.62714	1797.92896	179.32697	1036.08630	1793.66211	-118.27901	1023.98846	1640.16772				141.58963	608.36261	1947.11279	-8.46284	550.20056	1555.43738	78.99578	118.32291	2098.00659	175.07826	110.09460	1357.21594	
528	5.270	13.48614	1682.65125	1846.56494	-66.29052	1707.73193	1723.45837							208.94153	1527.13098	1696.25012	-76.23572	1516.54126	1575.91187	36.79758	1461.31958	1741.46399				370.47098	1187.48352	1728.82520	-207.74281	1164.45874	1562.41077	326.87793	903.18048	1852.67529	-234.51488	989.28564	1807.36047	175.96190	1035.13147	1807.35840	-120.89300	1023.07776	1651.42871				135.23965	608.19928	1961.32666	-11.41164	549.85571	1562.49817	73.24781	115.62270	2106.13965	174.35356	111.54050	1359.10767	
529	5.280	11.66058	1681.75757	1857.58337	-68.17593	1706.71265	1732.33118							207.53787	1525.55481	1706.60144	-77.62109	1514.81189	1586.10242	35.03831	1459.80566	1752.48340				368.31689	1185.94153	1740.46313	-209.16864	1162.62585	1571.97412	323.81384	903.09326	1867.42700	-236.91933	986.97302	1816.59631	171.87244	1033.81543	1820.76611	-123.14511	1022.41315	1663.07507				128.62498	607.56525	1975.12805	-14.31798	549.97443	1567.92029	66.83505	112.17630	2113.67725	174.46440	116.75633	1359.30591	
